REM DIRINDEX 1\2,1\3,1\4,1\5
REM DIRNAME cjc093,folder01,folder02,folder03,folder04
TITLE ""
FILE "Round-03-062-063.mp3" MP3
  TRACK 01 AUDIO
    TITLE "0:"
    INDEX 01 00:00:00
  TRACK 02 AUDIO
    TITLE "2:cjc093_0737"
    INDEX 01 00:00:01
  TRACK 03 AUDIO
    TITLE "0:"
    INDEX 01 00:01:07
  TRACK 04 AUDIO
    TITLE "3:cjc093_0738"
    INDEX 01 00:01:36
  TRACK 05 AUDIO
    TITLE "0:"
    INDEX 01 00:02:43
  TRACK 06 AUDIO
    TITLE "4:cjc093_0739"
    INDEX 01 00:03:14
  TRACK 07 AUDIO
    TITLE "0:"
    INDEX 01 00:05:48
  TRACK 08 AUDIO
    TITLE "3:cjc093_0740"
    INDEX 01 00:06:63
  TRACK 09 AUDIO
    TITLE "0:"
    INDEX 01 00:07:74
  TRACK 10 AUDIO
    TITLE "4:cjc093_0741"
    INDEX 01 00:08:38
  TRACK 11 AUDIO
    TITLE "0:"
    INDEX 01 00:10:63
  TRACK 12 AUDIO
    TITLE "2:cjc093_0742"
    INDEX 01 00:12:03
  TRACK 13 AUDIO
    TITLE "0:"
    INDEX 01 00:12:73
  TRACK 14 AUDIO
    TITLE "3:cjc093_0743"
    INDEX 01 00:13:35
  TRACK 15 AUDIO
    TITLE "0:"
    INDEX 01 00:14:33
  TRACK 16 AUDIO
    TITLE "4:cjc093_0744"
    INDEX 01 00:14:64
  TRACK 17 AUDIO
    TITLE "0:"
    INDEX 01 00:16:73
  TRACK 18 AUDIO
    TITLE "3:cjc093_0745"
    INDEX 01 00:18:11
  TRACK 19 AUDIO
    TITLE "0:"
    INDEX 01 00:19:09
  TRACK 20 AUDIO
    TITLE "4:cjc093_0746"
    INDEX 01 00:19:60
  TRACK 21 AUDIO
    TITLE "0:"
    INDEX 01 00:22:46
  TRACK 22 AUDIO
    TITLE "2:cjc093_0747"
    INDEX 01 00:23:61
  TRACK 23 AUDIO
    TITLE "0:"
    INDEX 01 00:24:63
  TRACK 24 AUDIO
    TITLE "2:cjc093_0748"
    INDEX 01 00:25:50
  TRACK 25 AUDIO
    TITLE "0:"
    INDEX 01 00:27:22
  TRACK 26 AUDIO
    TITLE "3:cjc093_0749"
    INDEX 01 00:27:73
  TRACK 27 AUDIO
    TITLE "0:"
    INDEX 01 00:29:46
  TRACK 28 AUDIO
    TITLE "4:cjc093_0750"
    INDEX 01 00:29:74
  TRACK 29 AUDIO
    TITLE "0:"
    INDEX 01 00:32:09
  TRACK 30 AUDIO
    TITLE "2:cjc093_0751"
    INDEX 01 00:33:62
  TRACK 31 AUDIO
    TITLE "0:"
    INDEX 01 00:35:33
  TRACK 32 AUDIO
    TITLE "3:cjc093_0752"
    INDEX 01 00:35:63
  TRACK 33 AUDIO
    TITLE "0:"
    INDEX 01 00:37:12
  TRACK 34 AUDIO
    TITLE "4:cjc093_0753"
    INDEX 01 00:37:30
  TRACK 35 AUDIO
    TITLE "0:"
    INDEX 01 00:41:08
  TRACK 36 AUDIO
    TITLE "2:cjc093_0754"
    INDEX 01 00:42:35
  TRACK 37 AUDIO
    TITLE "0:"
    INDEX 01 00:44:12
  TRACK 38 AUDIO
    TITLE "3:cjc093_0755"
    INDEX 01 00:44:52
  TRACK 39 AUDIO
    TITLE "0:"
    INDEX 01 00:46:17
  TRACK 40 AUDIO
    TITLE "4:cjc093_0756"
    INDEX 01 00:46:70
  TRACK 41 AUDIO
    TITLE "0:"
    INDEX 01 00:49:72
  TRACK 42 AUDIO
    TITLE "2:cjc093_0757"
    INDEX 01 00:51:16
  TRACK 43 AUDIO
    TITLE "0:"
    INDEX 01 00:53:11
  TRACK 44 AUDIO
    TITLE "3:cjc093_0758"
    INDEX 01 00:53:62
  TRACK 45 AUDIO
    TITLE "0:"
    INDEX 01 00:55:30
  TRACK 46 AUDIO
    TITLE "4:cjc093_0759"
    INDEX 01 00:55:50
  TRACK 47 AUDIO
    TITLE "0:"
    INDEX 01 00:58:36
  TRACK 48 AUDIO
    TITLE "2:cjc093_0760"
    INDEX 01 00:59:51
  TRACK 49 AUDIO
    TITLE "0:"
    INDEX 01 01:00:59
  TRACK 50 AUDIO
    TITLE "3:cjc093_0761"
    INDEX 01 01:01:21
  TRACK 51 AUDIO
    TITLE "0:"
    INDEX 01 01:02:34
  TRACK 52 AUDIO
    TITLE "4:cjc093_0762"
    INDEX 01 01:02:69
  TRACK 53 AUDIO
    TITLE "0:"
    INDEX 01 01:06:04
  TRACK 54 AUDIO
    TITLE "4:cjc093_0763"
    INDEX 01 01:07:15
  TRACK 55 AUDIO
    TITLE "0:"
    INDEX 01 01:11:27
  TRACK 56 AUDIO
    TITLE "3:cjc093_0764"
    INDEX 01 01:12:40
  TRACK 57 AUDIO
    TITLE "0:"
    INDEX 01 01:14:02
  TRACK 58 AUDIO
    TITLE "4:cjc093_0765"
    INDEX 01 01:14:70
  TRACK 59 AUDIO
    TITLE "0:"
    INDEX 01 01:18:02
  TRACK 60 AUDIO
    TITLE "2:cjc093_0766"
    INDEX 01 01:19:19
  TRACK 61 AUDIO
    TITLE "0:"
    INDEX 01 01:20:32
  TRACK 62 AUDIO
    TITLE "3:cjc093_0767"
    INDEX 01 01:20:65
  TRACK 63 AUDIO
    TITLE "0:"
    INDEX 01 01:22:37
  TRACK 64 AUDIO
    TITLE "4:cjc093_0768"
    INDEX 01 01:22:64
  TRACK 65 AUDIO
    TITLE "0:"
    INDEX 01 01:26:13
  TRACK 66 AUDIO
    TITLE "2:cjc093_0769"
    INDEX 01 01:27:28
  TRACK 67 AUDIO
    TITLE "0:"
    INDEX 01 01:28:33
  TRACK 68 AUDIO
    TITLE "3:cjc093_0770"
    INDEX 01 01:28:63
  TRACK 69 AUDIO
    TITLE "0:"
    INDEX 01 01:30:28
  TRACK 70 AUDIO
    TITLE "4:cjc093_0771"
    INDEX 01 01:30:44
  TRACK 71 AUDIO
    TITLE "0:"
    INDEX 01 01:33:05
  TRACK 72 AUDIO
    TITLE "3:cjc093_0772"
    INDEX 01 01:34:20
  TRACK 73 AUDIO
    TITLE "0:"
    INDEX 01 01:35:26
  TRACK 74 AUDIO
    TITLE "4:cjc093_0773"
    INDEX 01 01:35:55
  TRACK 75 AUDIO
    TITLE "0:"
    INDEX 01 01:38:30
  TRACK 76 AUDIO
    TITLE "3:cjc093_0774"
    INDEX 01 01:39:39
  TRACK 77 AUDIO
    TITLE "0:"
    INDEX 01 01:41:59
  TRACK 78 AUDIO
    TITLE "4:cjc093_0775"
    INDEX 01 01:42:24
  TRACK 79 AUDIO
    TITLE "0:"
    INDEX 01 01:45:32
